<!DOCTYPE svg PUBLIC "-//W3C//DTD SVG 20010904//EN" "http://www.w3.org/TR/2001/REC-SVG-20010904/DTD/svg10.dtd">
<svg version="1.0" xmlns="http://www.w3.org/2000/svg" width="531px" height="115px" viewBox="0 0 5310 1150" preserveAspectRatio="xMidYMid meet">
<g id="layer101" fill="#2d5276" stroke="none">
<path d="M1497 1053 c-4 -3 -7 -165 -7 -360 l0 -353 -140 0 -140 0 0 -130 0 -130 450 0 450 0 0 130 0 130 -140 0 -140 0 0 360 0 360 -163 0 c-90 0 -167 -3 -170 -7z"/>
</g>
<g id="layer102" fill="#5a7e9f" stroke="none">
<path d="M2538 1070 c-174 -31 -289 -123 -344 -275 -16 -44 -19 -91 -22 -382 l-3 -333 165 0 166 0 0 280 c0 309 7 369 50 411 59 60 172 43 215 -31 19 -33 20 -55 23 -348 l3 -312 165 0 164 0 0 303 c0 231 -4 317 -15 365 -36 154 -125 251 -273 301 -68 23 -223 34 -294 21z"/>
<path d="M1497 1053 c-4 -3 -7 -165 -7 -360 l0 -353 -140 0 -140 0 0 -130 0 -130 450 0 450 0 0 130 0 130 -140 0 -140 0 0 360 0 360 -163 0 c-90 0 -167 -3 -170 -7z m323 -363 l0 -360 140 0 140 0 0 -120 0 -120 -440 0 -440 0 0 120 0 120 140 0 140 0 0 360 0 360 160 0 160 0 0 -360z"/>
</g>
<g id="layer103" fill="#8faecb" stroke="none">
<path d="M3630 1069 c-124 -18 -223 -73 -290 -162 -76 -99 -92 -210 -88 -582 l3 -240 165 0 165 0 5 315 c3 212 9 322 17 335 24 43 60 66 109 71 64 7 110 -17 138 -71 20 -37 21 -60 24 -347 l3 -308 160 0 159 0 0 319 c0 353 -6 393 -69 493 -88 139 -287 209 -501 177z"/>
<path d="M1495 1047 c-3 -6 -4 -170 -2 -362 l2 -350 3 358 2 357 160 0 160 0 3 -357 2 -358 3 363 2 362 -165 0 c-124 0 -167 -3 -170 -13z"/>
<path d="M2388 1024 c-39 -21 -35 -28 5 -8 37 19 44 24 31 24 -5 -1 -21 -8 -36 -16z"/>
<path d="M2920 1007 c0 -2 15 -14 33 -27 20 -15 27 -17 18 -6 -13 16 -51 41 -51 33z"/>
<path d="M2304 962 c-23 -20 -45 -44 -50 -52 -5 -9 2 -4 16 11 14 15 39 39 55 53 17 14 28 25 25 26 -3 0 -23 -17 -46 -38z"/>
<path d="M3030 903 c13 -18 25 -33 27 -33 8 0 -17 38 -33 51 -11 9 -9 2 6 -18z"/>
<path d="M2707 795 c18 -8 42 -29 53 -47 11 -18 20 -27 20 -19 0 20 -65 81 -86 81 -12 -1 -7 -6 13 -15z"/>
<path d="M2172 398 l-2 -318 165 0 165 0 -2 273 -3 272 -2 -267 -3 -268 -155 0 -155 0 -3 313 -2 312 -3 -317z"/>
<path d="M3110 395 l0 -305 -155 0 -155 0 -3 293 -2 292 -3 -297 -2 -298 165 0 165 0 0 310 c0 171 -2 310 -5 310 -3 0 -5 -137 -5 -305z"/>
<path d="M1212 213 l-2 -133 453 2 452 3 -447 2 -447 3 -4 128 -3 127 -2 -132z"/>
</g>
<g id="layer104" fill="#afd1ef" stroke="none">
<path d="M362 1083 c-136 -175 -301 -471 -333 -596 -38 -154 59 -342 214 -413 55 -26 73 -29 162 -29 92 1 105 3 160 32 134 69 215 196 215 336 0 53 -35 168 -76 250 -73 143 -279 457 -301 457 -6 0 -24 -17 -41 -37z m130 -150 c137 -207 212 -349 239 -456 34 -139 -49 -300 -190 -366 -77 -36 -200 -37 -278 -2 -62 27 -146 112 -173 174 -49 111 -35 200 59 382 56 110 238 395 251 395 4 0 46 -57 92 -127z"/>
<path d="M384 627 c-9 -25 0 -62 16 -62 10 0 15 10 15 34 0 36 -21 54 -31 28z"/>
<path d="M240 567 c0 -19 47 -60 59 -52 16 9 14 18 -9 43 -23 24 -50 29 -50 9z"/>
<path d="M511 557 c-18 -20 -19 -26 -8 -35 18 -15 57 12 57 39 0 26 -22 24 -49 -4z"/>
<path d="M351 506 c-89 -49 -51 -185 52 -186 30 0 46 7 69 30 28 28 30 36 25 78 -8 76 -80 115 -146 78z m89 -46 c11 -11 20 -29 20 -40 0 -26 -34 -60 -60 -60 -11 0 -29 9 -40 20 -11 11 -20 29 -20 40 0 11 9 29 20 40 11 11 29 20 40 20 11 0 29 -9 40 -20z"/>
<path d="M185 431 c-11 -19 5 -31 41 -31 28 0 35 4 32 18 -4 19 -62 30 -73 13z"/>
<path d="M545 431 c-11 -19 5 -31 41 -31 28 0 35 4 32 18 -4 19 -62 30 -73 13z"/>
<path d="M261 306 c-26 -28 -27 -46 -2 -46 18 0 51 34 51 51 0 18 -30 15 -49 -5z"/>
<path d="M502 318 c-9 -9 -7 -17 10 -35 24 -25 48 -30 48 -10 0 8 -10 23 -23 35 -18 17 -26 19 -35 10z"/>
<path d="M384 267 c-9 -25 0 -62 16 -62 10 0 15 10 15 34 0 36 -21 54 -31 28z"/>
<path d="M2608 1073 c17 -2 47 -2 65 0 17 2 3 4 -33 4 -36 0 -50 -2 -32 -4z"/>
<path d="M3703 1073 c15 -2 39 -2 55 0 15 2 2 4 -28 4 -30 0 -43 -2 -27 -4z"/>
<path d="M4350 570 l0 -490 248 0 c364 0 445 18 551 116 83 76 106 131 106 254 0 84 -3 102 -28 151 -25 52 -86 118 -131 144 -15 9 -6 27 83 158 56 81 101 149 101 152 0 3 -78 5 -174 5 l-173 0 -83 -125 -83 -125 -43 0 -43 0 -3 123 -3 122 -162 3 -163 2 0 -490z m542 -39 c29 -26 33 -35 33 -81 0 -46 -4 -55 -33 -81 -31 -27 -37 -29 -122 -29 l-90 0 0 110 0 110 90 0 c85 0 91 -2 122 -29z"/>
<path d="M1495 695 c0 -198 1 -280 2 -183 2 97 2 259 0 360 -1 101 -2 21 -2 -177z"/>
<path d="M4080 945 c19 -19 36 -35 39 -35 3 0 -10 16 -29 35 -19 19 -36 35 -39 35 -3 0 10 -16 29 -35z"/>
<path d="M3582 378 l-2 -288 -160 0 -160 0 -3 263 -2 262 0 -265 0 -265 163 -3 c125 -2 164 0 167 10 3 7 4 139 2 293 l-2 280 -3 -287z"/>
<path d="M2792 353 l-2 -273 168 2 167 2 -162 3 -163 3 -3 268 -2 267 -3 -272z"/>
<path d="M2253 83 c48 -2 125 -2 170 0 45 1 6 3 -88 3 -93 0 -130 -2 -82 -3z"/>
<path d="M3958 83 c45 -2 119 -2 165 0 45 1 8 3 -83 3 -91 0 -128 -2 -82 -3z"/>
</g>


</svg>